<mxfile host="app.diagrams.net" modified="2023-09-21T07:02:15.034Z" agent="Mozilla/5.0 (Windows NT 10.0; Win64; x64) AppleWebKit/537.36 (KHTML, like Gecko) Chrome/116.0.0.0 Safari/537.36" etag="1zzc2mos86xkPTGdD6it" version="21.7.5" type="github">
  <diagram name="第 1 页" id="pP1tO3Ii8l8RqdQOzwid">
    <mxGraphModel dx="1434" dy="790" grid="1" gridSize="10" guides="1" tooltips="1" connect="1" arrows="1" fold="1" page="1" pageScale="1" pageWidth="850" pageHeight="1100" math="1" shadow="0">
      <root>
        <mxCell id="0" />
        <mxCell id="1" parent="0" />
        <mxCell id="Dqv5JmWRgsVvrp35Kz6W-14" value="" style="verticalLabelPosition=bottom;verticalAlign=top;html=1;shape=mxgraph.basic.corner_round_rect;dx=6;whiteSpace=wrap;" vertex="1" parent="1">
          <mxGeometry x="60" y="770" width="730" height="320" as="geometry" />
        </mxCell>
        <mxCell id="45aExs9Xjjavs16j4mOs-5" style="edgeStyle=orthogonalEdgeStyle;rounded=0;orthogonalLoop=1;jettySize=auto;html=1;exitX=0.5;exitY=1;exitDx=0;exitDy=0;exitPerimeter=0;entryX=0.5;entryY=0;entryDx=0;entryDy=0;" parent="1" source="45aExs9Xjjavs16j4mOs-2" target="45aExs9Xjjavs16j4mOs-3" edge="1">
          <mxGeometry relative="1" as="geometry" />
        </mxCell>
        <mxCell id="45aExs9Xjjavs16j4mOs-6" value="用户提交代购订单" style="edgeLabel;html=1;align=center;verticalAlign=middle;resizable=0;points=[];" parent="45aExs9Xjjavs16j4mOs-5" vertex="1" connectable="0">
          <mxGeometry x="-0.6" y="-1" relative="1" as="geometry">
            <mxPoint x="1" y="8" as="offset" />
          </mxGeometry>
        </mxCell>
        <mxCell id="45aExs9Xjjavs16j4mOs-2" value="开始" style="strokeWidth=2;html=1;shape=mxgraph.flowchart.terminator;whiteSpace=wrap;" parent="1" vertex="1">
          <mxGeometry x="360" y="30" width="100" height="60" as="geometry" />
        </mxCell>
        <mxCell id="45aExs9Xjjavs16j4mOs-8" value="" style="edgeStyle=orthogonalEdgeStyle;rounded=0;orthogonalLoop=1;jettySize=auto;html=1;" parent="1" source="45aExs9Xjjavs16j4mOs-3" target="45aExs9Xjjavs16j4mOs-7" edge="1">
          <mxGeometry relative="1" as="geometry" />
        </mxCell>
        <mxCell id="FNXPkqNXXuDWN-amQ0E9-34" value="用户支付首付款" style="edgeLabel;html=1;align=center;verticalAlign=middle;resizable=0;points=[];" parent="45aExs9Xjjavs16j4mOs-8" vertex="1" connectable="0">
          <mxGeometry x="-0.275" y="3" relative="1" as="geometry">
            <mxPoint as="offset" />
          </mxGeometry>
        </mxCell>
        <mxCell id="45aExs9Xjjavs16j4mOs-3" value="首付款待支付" style="rounded=0;whiteSpace=wrap;html=1;" parent="1" vertex="1">
          <mxGeometry x="350" y="140" width="120" height="60" as="geometry" />
        </mxCell>
        <mxCell id="FNXPkqNXXuDWN-amQ0E9-2" value="" style="edgeStyle=orthogonalEdgeStyle;rounded=0;orthogonalLoop=1;jettySize=auto;html=1;" parent="1" source="45aExs9Xjjavs16j4mOs-7" target="FNXPkqNXXuDWN-amQ0E9-1" edge="1">
          <mxGeometry relative="1" as="geometry" />
        </mxCell>
        <mxCell id="3CZQ1WSbMAs0qGvyiBaF-1" value="客服审核代购单" style="edgeLabel;html=1;align=center;verticalAlign=middle;resizable=0;points=[];" parent="FNXPkqNXXuDWN-amQ0E9-2" vertex="1" connectable="0">
          <mxGeometry x="-0.2333" relative="1" as="geometry">
            <mxPoint as="offset" />
          </mxGeometry>
        </mxCell>
        <mxCell id="45aExs9Xjjavs16j4mOs-7" value="待审核" style="whiteSpace=wrap;html=1;rounded=0;" parent="1" vertex="1">
          <mxGeometry x="350" y="270" width="120" height="60" as="geometry" />
        </mxCell>
        <mxCell id="45aExs9Xjjavs16j4mOs-12" value="" style="edgeStyle=orthogonalEdgeStyle;rounded=0;orthogonalLoop=1;jettySize=auto;html=1;" parent="1" source="45aExs9Xjjavs16j4mOs-9" target="45aExs9Xjjavs16j4mOs-11" edge="1">
          <mxGeometry relative="1" as="geometry" />
        </mxCell>
        <mxCell id="3CZQ1WSbMAs0qGvyiBaF-2" value="采购第三方平台下单成功" style="edgeLabel;html=1;align=center;verticalAlign=middle;resizable=0;points=[];" parent="45aExs9Xjjavs16j4mOs-12" vertex="1" connectable="0">
          <mxGeometry x="0.1" y="-1" relative="1" as="geometry">
            <mxPoint as="offset" />
          </mxGeometry>
        </mxCell>
        <mxCell id="45aExs9Xjjavs16j4mOs-9" value="订购中" style="whiteSpace=wrap;html=1;rounded=0;" parent="1" vertex="1">
          <mxGeometry x="350" y="530" width="120" height="60" as="geometry" />
        </mxCell>
        <mxCell id="45aExs9Xjjavs16j4mOs-14" value="" style="edgeStyle=orthogonalEdgeStyle;rounded=0;orthogonalLoop=1;jettySize=auto;html=1;entryX=0.5;entryY=0;entryDx=0;entryDy=0;" parent="1" source="45aExs9Xjjavs16j4mOs-11" target="Dqv5JmWRgsVvrp35Kz6W-15" edge="1">
          <mxGeometry relative="1" as="geometry">
            <mxPoint x="410" y="790" as="targetPoint" />
          </mxGeometry>
        </mxCell>
        <mxCell id="3CZQ1WSbMAs0qGvyiBaF-3" value="第三方平台的产品到货" style="edgeLabel;html=1;align=center;verticalAlign=middle;resizable=0;points=[];" parent="45aExs9Xjjavs16j4mOs-14" vertex="1" connectable="0">
          <mxGeometry x="0.075" y="-2" relative="1" as="geometry">
            <mxPoint x="2" y="-25" as="offset" />
          </mxGeometry>
        </mxCell>
        <mxCell id="45aExs9Xjjavs16j4mOs-11" value="已订购" style="whiteSpace=wrap;html=1;rounded=0;" parent="1" vertex="1">
          <mxGeometry x="350" y="640" width="120" height="60" as="geometry" />
        </mxCell>
        <mxCell id="45aExs9Xjjavs16j4mOs-16" value="" style="edgeStyle=orthogonalEdgeStyle;rounded=0;orthogonalLoop=1;jettySize=auto;html=1;" parent="1" source="45aExs9Xjjavs16j4mOs-13" target="45aExs9Xjjavs16j4mOs-17" edge="1">
          <mxGeometry relative="1" as="geometry">
            <mxPoint x="410" y="940" as="targetPoint" />
          </mxGeometry>
        </mxCell>
        <mxCell id="45aExs9Xjjavs16j4mOs-13" value="已入库" style="whiteSpace=wrap;html=1;rounded=0;" parent="1" vertex="1">
          <mxGeometry x="350" y="1010" width="120" height="60" as="geometry" />
        </mxCell>
        <mxCell id="45aExs9Xjjavs16j4mOs-17" value="商品入用户仓库" style="strokeWidth=2;html=1;shape=mxgraph.flowchart.terminator;whiteSpace=wrap;" parent="1" vertex="1">
          <mxGeometry x="360" y="1110" width="100" height="60" as="geometry" />
        </mxCell>
        <mxCell id="FNXPkqNXXuDWN-amQ0E9-13" value="" style="edgeStyle=orthogonalEdgeStyle;rounded=0;orthogonalLoop=1;jettySize=auto;html=1;entryX=0;entryY=0.5;entryDx=0;entryDy=0;" parent="1" source="FNXPkqNXXuDWN-amQ0E9-1" target="FNXPkqNXXuDWN-amQ0E9-17" edge="1">
          <mxGeometry relative="1" as="geometry">
            <mxPoint x="560" y="430" as="targetPoint" />
          </mxGeometry>
        </mxCell>
        <mxCell id="FNXPkqNXXuDWN-amQ0E9-20" value="补差款&amp;gt;0" style="edgeLabel;html=1;align=center;verticalAlign=middle;resizable=0;points=[];" parent="FNXPkqNXXuDWN-amQ0E9-13" vertex="1" connectable="0">
          <mxGeometry x="-0.325" y="2" relative="1" as="geometry">
            <mxPoint x="8" y="2" as="offset" />
          </mxGeometry>
        </mxCell>
        <mxCell id="FNXPkqNXXuDWN-amQ0E9-29" value="" style="edgeStyle=orthogonalEdgeStyle;rounded=0;orthogonalLoop=1;jettySize=auto;html=1;" parent="1" source="FNXPkqNXXuDWN-amQ0E9-1" target="FNXPkqNXXuDWN-amQ0E9-28" edge="1">
          <mxGeometry relative="1" as="geometry" />
        </mxCell>
        <mxCell id="FNXPkqNXXuDWN-amQ0E9-32" value="补差款&amp;lt;0" style="edgeLabel;html=1;align=center;verticalAlign=middle;resizable=0;points=[];" parent="FNXPkqNXXuDWN-amQ0E9-29" vertex="1" connectable="0">
          <mxGeometry x="-0.2632" y="-1" relative="1" as="geometry">
            <mxPoint as="offset" />
          </mxGeometry>
        </mxCell>
        <mxCell id="FNXPkqNXXuDWN-amQ0E9-1" value="补差款审核" style="rhombus;whiteSpace=wrap;html=1;rounded=0;" parent="1" vertex="1">
          <mxGeometry x="335" y="400" width="150" height="60" as="geometry" />
        </mxCell>
        <mxCell id="FNXPkqNXXuDWN-amQ0E9-3" value="" style="endArrow=classic;html=1;rounded=0;exitX=0.5;exitY=1;exitDx=0;exitDy=0;" parent="1" source="FNXPkqNXXuDWN-amQ0E9-1" target="45aExs9Xjjavs16j4mOs-9" edge="1">
          <mxGeometry width="50" height="50" relative="1" as="geometry">
            <mxPoint x="400" y="630" as="sourcePoint" />
            <mxPoint x="450" y="580" as="targetPoint" />
          </mxGeometry>
        </mxCell>
        <mxCell id="FNXPkqNXXuDWN-amQ0E9-4" value="审核通过或者补差款刚好=0" style="edgeLabel;html=1;align=center;verticalAlign=middle;resizable=0;points=[];" parent="FNXPkqNXXuDWN-amQ0E9-3" vertex="1" connectable="0">
          <mxGeometry x="-0.32" y="-1" relative="1" as="geometry">
            <mxPoint y="3" as="offset" />
          </mxGeometry>
        </mxCell>
        <mxCell id="FNXPkqNXXuDWN-amQ0E9-24" style="edgeStyle=orthogonalEdgeStyle;rounded=0;orthogonalLoop=1;jettySize=auto;html=1;exitX=0.5;exitY=1;exitDx=0;exitDy=0;entryX=1;entryY=0.5;entryDx=0;entryDy=0;" parent="1" source="FNXPkqNXXuDWN-amQ0E9-17" target="45aExs9Xjjavs16j4mOs-9" edge="1">
          <mxGeometry relative="1" as="geometry" />
        </mxCell>
        <mxCell id="FNXPkqNXXuDWN-amQ0E9-25" value="用户支付补差款" style="edgeLabel;html=1;align=center;verticalAlign=middle;resizable=0;points=[];" parent="FNXPkqNXXuDWN-amQ0E9-24" vertex="1" connectable="0">
          <mxGeometry x="-0.15" y="-1" relative="1" as="geometry">
            <mxPoint as="offset" />
          </mxGeometry>
        </mxCell>
        <mxCell id="FNXPkqNXXuDWN-amQ0E9-17" value="补差款待支付" style="whiteSpace=wrap;html=1;rounded=0;" parent="1" vertex="1">
          <mxGeometry x="600" y="400" width="120" height="60" as="geometry" />
        </mxCell>
        <mxCell id="FNXPkqNXXuDWN-amQ0E9-31" style="edgeStyle=orthogonalEdgeStyle;rounded=0;orthogonalLoop=1;jettySize=auto;html=1;exitX=0.5;exitY=1;exitDx=0;exitDy=0;entryX=0;entryY=0.5;entryDx=0;entryDy=0;" parent="1" source="FNXPkqNXXuDWN-amQ0E9-28" target="45aExs9Xjjavs16j4mOs-9" edge="1">
          <mxGeometry relative="1" as="geometry" />
        </mxCell>
        <mxCell id="FNXPkqNXXuDWN-amQ0E9-33" value="系统后台部分退款成功" style="edgeLabel;html=1;align=center;verticalAlign=middle;resizable=0;points=[];" parent="FNXPkqNXXuDWN-amQ0E9-31" vertex="1" connectable="0">
          <mxGeometry x="-0.6963" y="-1" relative="1" as="geometry">
            <mxPoint as="offset" />
          </mxGeometry>
        </mxCell>
        <mxCell id="FNXPkqNXXuDWN-amQ0E9-28" value="多余金额部分退款" style="whiteSpace=wrap;html=1;rounded=0;" parent="1" vertex="1">
          <mxGeometry x="120" y="400" width="120" height="60" as="geometry" />
        </mxCell>
        <mxCell id="Dqv5JmWRgsVvrp35Kz6W-4" style="edgeStyle=orthogonalEdgeStyle;rounded=0;orthogonalLoop=1;jettySize=auto;html=1;exitX=0.5;exitY=1;exitDx=0;exitDy=0;entryX=0.5;entryY=0;entryDx=0;entryDy=0;" edge="1" parent="1" source="Dqv5JmWRgsVvrp35Kz6W-2" target="45aExs9Xjjavs16j4mOs-13">
          <mxGeometry relative="1" as="geometry">
            <mxPoint x="410" y="910" as="targetPoint" />
          </mxGeometry>
        </mxCell>
        <mxCell id="Dqv5JmWRgsVvrp35Kz6W-5" value="QC确认" style="edgeLabel;html=1;align=center;verticalAlign=middle;resizable=0;points=[];" vertex="1" connectable="0" parent="Dqv5JmWRgsVvrp35Kz6W-4">
          <mxGeometry x="-0.3667" y="1" relative="1" as="geometry">
            <mxPoint as="offset" />
          </mxGeometry>
        </mxCell>
        <mxCell id="Dqv5JmWRgsVvrp35Kz6W-8" style="edgeStyle=orthogonalEdgeStyle;rounded=0;orthogonalLoop=1;jettySize=auto;html=1;exitX=0;exitY=0.5;exitDx=0;exitDy=0;entryX=1;entryY=0.5;entryDx=0;entryDy=0;" edge="1" parent="1" source="Dqv5JmWRgsVvrp35Kz6W-2" target="Dqv5JmWRgsVvrp35Kz6W-7">
          <mxGeometry relative="1" as="geometry" />
        </mxCell>
        <mxCell id="Dqv5JmWRgsVvrp35Kz6W-9" value="申请换货" style="edgeLabel;html=1;align=center;verticalAlign=middle;resizable=0;points=[];" vertex="1" connectable="0" parent="Dqv5JmWRgsVvrp35Kz6W-8">
          <mxGeometry x="0.0435" y="3" relative="1" as="geometry">
            <mxPoint x="15" y="-3" as="offset" />
          </mxGeometry>
        </mxCell>
        <mxCell id="Dqv5JmWRgsVvrp35Kz6W-11" style="edgeStyle=orthogonalEdgeStyle;rounded=0;orthogonalLoop=1;jettySize=auto;html=1;exitX=1;exitY=0.5;exitDx=0;exitDy=0;entryX=0;entryY=0.5;entryDx=0;entryDy=0;" edge="1" parent="1" source="Dqv5JmWRgsVvrp35Kz6W-2" target="Dqv5JmWRgsVvrp35Kz6W-10">
          <mxGeometry relative="1" as="geometry" />
        </mxCell>
        <mxCell id="Dqv5JmWRgsVvrp35Kz6W-12" value="退货" style="edgeLabel;html=1;align=center;verticalAlign=middle;resizable=0;points=[];" vertex="1" connectable="0" parent="Dqv5JmWRgsVvrp35Kz6W-11">
          <mxGeometry x="-0.1467" y="2" relative="1" as="geometry">
            <mxPoint as="offset" />
          </mxGeometry>
        </mxCell>
        <mxCell id="Dqv5JmWRgsVvrp35Kz6W-2" value="用户QC确认" style="rhombus;whiteSpace=wrap;html=1;rounded=0;" vertex="1" parent="1">
          <mxGeometry x="335" y="890" width="150" height="60" as="geometry" />
        </mxCell>
        <mxCell id="Dqv5JmWRgsVvrp35Kz6W-23" style="edgeStyle=orthogonalEdgeStyle;rounded=0;orthogonalLoop=1;jettySize=auto;html=1;exitX=0.5;exitY=1;exitDx=0;exitDy=0;entryX=0.5;entryY=0;entryDx=0;entryDy=0;" edge="1" parent="1" source="Dqv5JmWRgsVvrp35Kz6W-7" target="Dqv5JmWRgsVvrp35Kz6W-22">
          <mxGeometry relative="1" as="geometry" />
        </mxCell>
        <mxCell id="Dqv5JmWRgsVvrp35Kz6W-7" value="审批退换货" style="whiteSpace=wrap;html=1;rounded=0;" vertex="1" parent="1">
          <mxGeometry x="120" y="890" width="120" height="60" as="geometry" />
        </mxCell>
        <mxCell id="Dqv5JmWRgsVvrp35Kz6W-19" value="" style="edgeStyle=orthogonalEdgeStyle;rounded=0;orthogonalLoop=1;jettySize=auto;html=1;" edge="1" parent="1" source="Dqv5JmWRgsVvrp35Kz6W-10" target="Dqv5JmWRgsVvrp35Kz6W-17">
          <mxGeometry relative="1" as="geometry">
            <mxPoint x="640" y="1060" as="targetPoint" />
          </mxGeometry>
        </mxCell>
        <mxCell id="Dqv5JmWRgsVvrp35Kz6W-10" value="审批退货单" style="whiteSpace=wrap;html=1;rounded=0;" vertex="1" parent="1">
          <mxGeometry x="590" y="890" width="120" height="60" as="geometry" />
        </mxCell>
        <mxCell id="Dqv5JmWRgsVvrp35Kz6W-16" style="edgeStyle=orthogonalEdgeStyle;rounded=0;orthogonalLoop=1;jettySize=auto;html=1;exitX=0.5;exitY=1;exitDx=0;exitDy=0;" edge="1" parent="1" source="Dqv5JmWRgsVvrp35Kz6W-15" target="Dqv5JmWRgsVvrp35Kz6W-2">
          <mxGeometry relative="1" as="geometry" />
        </mxCell>
        <mxCell id="Dqv5JmWRgsVvrp35Kz6W-15" value="采购拍摄QC质检图" style="whiteSpace=wrap;html=1;rounded=0;" vertex="1" parent="1">
          <mxGeometry x="350" y="800" width="120" height="60" as="geometry" />
        </mxCell>
        <mxCell id="Dqv5JmWRgsVvrp35Kz6W-17" value="商品标注已退款" style="strokeWidth=2;html=1;shape=mxgraph.flowchart.terminator;whiteSpace=wrap;" vertex="1" parent="1">
          <mxGeometry x="600" y="1110" width="100" height="60" as="geometry" />
        </mxCell>
        <mxCell id="Dqv5JmWRgsVvrp35Kz6W-22" value="根据换货要求&lt;br&gt;重新生成订单" style="rounded=0;whiteSpace=wrap;html=1;" vertex="1" parent="1">
          <mxGeometry x="120" y="1010" width="120" height="60" as="geometry" />
        </mxCell>
      </root>
    </mxGraphModel>
  </diagram>
</mxfile>
